<?xml version="1.0" encoding="UTF-8"?>
<svg version="1.1" xmlns="http://www.w3.org/2000/svg" width="512" height="512">
<path d="M0 0 C0 20.46 0 40.92 0 62 C5.28 61.01 10.56 60.02 16 59 C25.29605472 58.0261276 34.65282398 57.57512836 44 58 C45 59 45 59 45.12025452 60.94252014 C45.11803391 61.79301437 45.11581329 62.64350861 45.11352539 63.51977539 C45.11344986 64.48069595 45.11337433 65.44161652 45.11329651 66.43165588 C45.10813522 67.476436 45.10297394 68.52121613 45.09765625 69.59765625 C45.09553383 71.19364906 45.09553383 71.19364906 45.09336853 72.82188416 C45.08775064 76.23545083 45.07519511 79.648953 45.0625 83.0625 C45.05748731 85.37044176 45.052924 87.67838455 45.04882812 89.98632812 C45.0377754 95.65757426 45.02101987 101.32878253 45 107 C45.88558594 107.09796875 46.77117187 107.1959375 47.68359375 107.296875 C57.81772363 108.52014146 66.91839339 110.62785727 77 113 C77 125.87 77 138.74 77 152 C85.98989997 151.88160107 85.98989997 151.88160107 94.97924805 151.72973633 C96.10371338 151.72224365 97.22817871 151.71475098 98.38671875 151.70703125 C99.53358154 151.6913208 100.68044434 151.67561035 101.86206055 151.65942383 C105.63731335 152.06917079 108.29642254 153.29642254 111 156 C111.10080027 157.66425442 111.13107632 159.3328103 111.13422108 161.00011158 C111.13867892 162.08993865 111.14313676 163.17976572 111.14772969 164.30261785 C111.14745315 166.12095609 111.14745315 166.12095609 111.14717102 167.97602844 C111.15084771 169.25221249 111.1545244 170.52839654 111.1583125 171.84325284 C111.16836158 175.40196519 111.17205395 178.96066068 111.17470181 182.51938522 C111.17859629 186.35111645 111.1881752 190.18283422 111.19691467 194.01455688 C111.21670356 203.27637901 111.22674843 212.53820228 111.23564246 221.80004027 C111.24002146 226.15739135 111.24538928 230.51474119 111.25063133 234.87209129 C111.26764616 249.34981821 111.28214141 263.82754435 111.28938007 278.30527973 C111.29129009 282.06476658 111.29321041 285.82425341 111.29516602 289.58374023 C111.29564976 290.51818791 111.2961335 291.4526356 111.2966319 292.41539987 C111.30493619 307.56051004 111.3302787 322.70554132 111.36274669 337.85061703 C111.39578111 353.38608009 111.41382556 368.92150301 111.41702431 384.45700139 C111.41919279 393.18515771 111.42799059 401.91319901 111.45348549 410.64132118 C111.47514319 418.07313656 111.48326735 425.50480899 111.47351871 432.93665234 C111.46895957 436.73059079 111.47095306 440.52423403 111.49028015 444.3181324 C111.51102974 448.4266385 111.5009731 452.53448373 111.48774719 456.64302063 C111.50420106 458.45132063 111.50420106 458.45132063 111.52098733 460.29615194 C111.51240644 461.39380225 111.50382555 462.49145256 111.49498463 463.622365 C111.49596144 464.57112375 111.49693824 465.5198825 111.49794465 466.49739152 C110.84718306 469.76803911 109.57168028 470.94128794 107 473 C103.3292053 474.22359823 99.94938714 474.14479234 96.12721252 474.14044189 C95.31640557 474.14341302 94.50559861 474.14638414 93.67022175 474.1494453 C90.94363031 474.15814132 88.21708273 474.15964134 85.49047852 474.16113281 C83.53908697 474.16576055 81.58769634 474.17078515 79.63630676 474.17617798 C74.32593103 474.18931309 69.01556795 474.19574976 63.7051785 474.20018864 C60.38552699 474.20311916 57.06587894 474.20722405 53.74622917 474.21169281 C43.35475288 474.22537415 32.96328449 474.23503621 22.57179981 474.2388947 C10.58714271 474.24336929 -1.39739999 474.26088669 -13.38202232 474.2898953 C-22.65013659 474.31154715 -31.91821876 474.32160095 -41.18635803 474.32293582 C-46.71886691 474.32398185 -52.25126835 474.3298461 -57.78375053 474.34775543 C-62.99499028 474.36429541 -68.20604254 474.3663629 -73.41729927 474.35761642 C-75.32314686 474.35684907 -77.22900477 474.36114874 -79.13482666 474.37107468 C-92.09242448 474.43456481 -103.53947029 473.5933901 -115.33984375 467.71484375 C-115.95469131 467.41308731 -116.56953888 467.11133087 -117.20301819 466.8004303 C-119.1201086 465.85694549 -121.02888988 464.89800421 -122.9375 463.9375 C-124.87271615 462.97702358 -126.80953025 462.01985335 -128.7469635 461.06385803 C-130.48759429 460.20291776 -132.22427459 459.33400375 -133.96069336 458.46459961 C-134.96366455 457.98128174 -135.96663574 457.49796387 -137 457 C-137.83345947 456.58435791 -138.66691895 456.16871582 -139.52563477 455.74047852 C-145.41154416 453.97906133 -150.46730437 456.94140493 -155.671875 459.52734375 C-157.15616413 460.24431842 -158.64054197 460.96110947 -160.125 461.67773438 C-162.43484915 462.80403052 -164.74282263 463.93397001 -167.04882812 465.06811523 C-169.29351683 466.16858013 -171.54473427 467.25472963 -173.796875 468.33984375 C-174.80678497 468.84462502 -174.80678497 468.84462502 -175.83709717 469.35960388 C-187.24646333 474.83390453 -199.12539054 474.29803494 -211.49121094 474.29052734 C-213.4632238 474.29651853 -215.43523433 474.30332543 -217.40724182 474.31088257 C-222.73953974 474.32848032 -228.0717734 474.33323505 -233.40409756 474.33451414 C-236.73731334 474.33593876 -240.07051292 474.34021402 -243.40372467 474.34550858 C-255.03625014 474.36398158 -266.66872988 474.37218178 -278.30126953 474.37060547 C-289.14072813 474.36940177 -299.97998837 474.39055589 -310.81939673 474.4220928 C-320.13512348 474.44823009 -329.45078526 474.45897398 -338.7665484 474.45769465 C-344.32673399 474.45718468 -349.88674277 474.46288887 -355.44689178 474.48405075 C-360.67057182 474.50339249 -365.89390544 474.50358544 -371.11759758 474.48901749 C-373.03403415 474.4869239 -374.9504922 474.49166289 -376.86689186 474.5037384 C-379.4833455 474.51915788 -382.09859936 474.50990534 -384.71502686 474.49447632 C-385.47280922 474.50476344 -386.23059158 474.51505057 -387.01133704 474.52564943 C-390.46574689 474.48064253 -393.22256415 473.91940641 -396.47145367 472.74293804 C-400.59102059 468.27407913 -399.81660811 463.48189555 -399.74171448 457.61851501 C-399.74895772 456.33497857 -399.75620097 455.05144213 -399.76366371 453.72901064 C-399.78292831 450.16338347 -399.76468438 446.59877612 -399.74037087 443.03321588 C-399.72065622 439.18926025 -399.73548155 435.34541967 -399.74601746 431.50144958 C-399.76115276 423.9703146 -399.74420782 416.43957439 -399.71646655 408.90848844 C-399.6853386 400.14349909 -399.68552446 391.37859546 -399.68698429 382.61356122 C-399.68848669 366.97821191 -399.66098668 351.34304659 -399.61743164 335.70776367 C-399.57516102 320.52576343 -399.55391958 305.34392513 -399.5559082 290.16186523 C-399.55602807 289.22669573 -399.55614794 288.29152622 -399.55627144 287.32801824 C-399.5563925 286.39448707 -399.55651357 285.4609559 -399.5566383 284.49913591 C-399.55870643 267.22899009 -399.54104663 249.95891327 -399.51417865 232.6887898 C-399.50511954 226.57467394 -399.50193879 220.46057073 -399.50058174 214.3464489 C-399.49853789 206.89928969 -399.48517966 199.45224675 -399.45758332 192.0051369 C-399.44370752 188.20327156 -399.43460078 184.40155517 -399.43836594 180.59966278 C-399.44224387 176.4844424 -399.42295572 172.36966559 -399.40113831 168.25450134 C-399.40578411 167.04421058 -399.41042992 165.83391982 -399.41521651 164.58695358 C-399.40554317 163.48966102 -399.39586983 162.39236846 -399.38590336 161.26182461 C-399.38379008 160.31127459 -399.38167681 159.36072457 -399.3794995 158.38137001 C-398.92783197 155.54714359 -398.28069173 154.6914605 -396 153 C-392.58248347 151.86082782 -389.96512063 151.88661519 -386.36328125 151.90234375 C-384.60818237 151.90609009 -384.60818237 151.90609009 -382.81762695 151.90991211 C-381.33093506 151.91901611 -379.84424316 151.92812012 -378.3125 151.9375 C-373.589375 151.958125 -368.86625 151.97875 -364 152 C-364 139.13 -364 126.26 -364 113 C-360.57625 112.195625 -357.1525 111.39125 -353.625 110.5625 C-352.56748535 110.31056885 -351.5099707 110.0586377 -350.42041016 109.79907227 C-349.55206543 109.59854248 -348.6837207 109.3980127 -347.7890625 109.19140625 C-346.91975098 108.98717041 -346.05043945 108.78293457 -345.15478516 108.57250977 C-340.79412366 107.78116545 -336.41207287 107.39332064 -332 107 C-332.00222061 106.40087296 -332.00444122 105.80174591 -332.00672913 105.1844635 C-332.02878165 98.97202142 -332.04390646 92.75959038 -332.05493164 86.54711914 C-332.05997333 84.22582549 -332.06680651 81.90453503 -332.07543945 79.58325195 C-332.08751225 76.25471205 -332.09322979 72.92621398 -332.09765625 69.59765625 C-332.10281754 68.55287613 -332.10797882 67.50809601 -332.11329651 66.43165588 C-332.11337204 65.47073532 -332.11344757 64.50981476 -332.11352539 63.51977539 C-332.115746 62.66928116 -332.11796661 61.81878693 -332.12025452 60.94252014 C-332 59 -332 59 -331 58 C-295.90514288 55.56600185 -260.13231945 66.74867638 -229 82 C-228.27796387 82.35143066 -227.55592773 82.70286133 -226.81201172 83.06494141 C-200.7781739 95.88775622 -177.10071177 113.64857839 -155.8828125 133.3359375 C-151.97312614 136.94895389 -147.99365349 140.48034073 -144 144 C-140.18404349 139.57060367 -137.3732653 134.71431916 -134.4375 129.6875 C-122.61397725 109.74862623 -108.97380079 90.69871507 -94 73 C-92.84371094 71.56720703 -92.84371094 71.56720703 -91.6640625 70.10546875 C-77.62054036 52.92637628 -61.17705999 35.79404636 -43 23 C-42.18789063 22.39285156 -41.37578125 21.78570312 -40.5390625 21.16015625 C-11.65376984 0 -11.65376984 0 0 0 Z " fill="#D3DBFA" transform="translate(400,19)"/>
<path d="M0 0 C0 20.46 0 40.92 0 62 C5.28 61.01 10.56 60.02 16 59 C25.29605472 58.0261276 34.65282398 57.57512836 44 58 C45 59 45 59 45.12025452 60.94252014 C45.11803391 61.79301437 45.11581329 62.64350861 45.11352539 63.51977539 C45.11344986 64.48069595 45.11337433 65.44161652 45.11329651 66.43165588 C45.10813522 67.476436 45.10297394 68.52121613 45.09765625 69.59765625 C45.09553383 71.19364906 45.09553383 71.19364906 45.09336853 72.82188416 C45.08775064 76.23545083 45.07519511 79.648953 45.0625 83.0625 C45.05748731 85.37044176 45.052924 87.67838455 45.04882812 89.98632812 C45.0377754 95.65757426 45.02101987 101.32878253 45 107 C45.88558594 107.09796875 46.77117187 107.1959375 47.68359375 107.296875 C54.93662352 108.17237079 61.94279264 109.34784651 69.03515625 111.078125 C69.80734497 111.2632666 70.57953369 111.4484082 71.37512207 111.63916016 C73.2508935 112.08940339 75.12556799 112.54421269 77 113 C77.04156004 144.24914247 76.93057949 175.49748374 76.80645666 206.74632942 C76.77786816 213.95147629 76.75016583 221.1566265 76.72249681 228.36177696 C76.67316825 241.20139202 76.62318091 254.04100444 76.57275391 266.88061523 C76.52389358 279.32169459 76.47535932 291.76277515 76.42724609 304.20385742 C76.4242591 304.97620405 76.4212721 305.74855067 76.41819459 306.54430174 C76.40320534 310.42057365 76.38822231 314.29684558 76.37324238 318.17311752 C76.24979269 350.11541547 76.12525186 382.05770907 76 414 C74.92590425 413.78179328 74.92590425 413.78179328 73.8301096 413.55917835 C70.55133162 412.89439805 67.27189154 412.2329409 63.99243164 411.5715332 C62.86606544 411.34264656 61.73969925 411.11375992 60.57920074 410.87793732 C52.54591682 409.26115443 44.60286821 407.93689136 36.4375 407.1875 C35.20483398 407.07132324 33.97216797 406.95514648 32.70214844 406.83544922 C-26.62144399 401.76358832 -86.51132339 415.11077915 -137.9921875 445.3203125 C-141 447 -141 447 -143 447 C-143.22920752 408.68910886 -143.40525776 370.37832154 -143.51065329 332.0668827 C-143.52315941 327.53734451 -143.53610272 323.00780767 -143.54931641 318.47827148 C-143.55193951 317.57657449 -143.55456261 316.67487749 -143.55726521 315.74585634 C-143.60070307 301.17187985 -143.67950652 286.59830038 -143.77152796 272.02455891 C-143.86525444 257.05522733 -143.92063214 242.08610276 -143.94088495 227.11648983 C-143.954563 217.88939095 -143.99765948 208.66341447 -144.07916467 199.43666136 C-144.13228639 193.0976769 -144.14794274 186.75926722 -144.13501377 180.42007668 C-144.12864801 176.76969715 -144.13795469 173.12126947 -144.19205475 169.4712429 C-144.41350418 153.75747223 -144.16556753 141.36220544 -134.24068046 128.61855114 C-132.31663351 126.10850243 -130.69084775 123.4391275 -129.015625 120.7578125 C-127.76661705 118.87607806 -126.51139031 116.99845666 -125.25 115.125 C-124.57316162 114.11542236 -123.89632324 113.10584473 -123.19897461 112.06567383 C-114.08918291 98.57255845 -104.51881232 85.43301315 -94 73 C-93.22914063 72.04480469 -92.45828125 71.08960937 -91.6640625 70.10546875 C-77.62054036 52.92637628 -61.17705999 35.79404636 -43 23 C-42.18789063 22.39285156 -41.37578125 21.78570312 -40.5390625 21.16015625 C-11.65376984 0 -11.65376984 0 0 0 Z " fill="#E8EEFE" transform="translate(400,19)"/>
<path d="M0 0 C0 86.46 0 172.92 0 262 C8.415 260.02 8.415 260.02 17 258 C21.23318244 257.21515452 25.43642653 256.46587644 29.6875 255.8125 C30.76854004 255.64524414 31.84958008 255.47798828 32.96337891 255.30566406 C40.64827768 254.14650878 48.22214365 253.18573985 56 253 C57.37019287 252.96132813 57.37019287 252.96132813 58.76806641 252.921875 C81.69781154 252.34889995 104.5498352 254.17292218 127 259 C128.09610596 259.23493164 128.09610596 259.23493164 129.21435547 259.47460938 C157.57669712 265.72546111 183.92741558 276.32712486 209.40136719 290.1027832 C210.77856934 290.84081177 210.77856934 290.84081177 212.18359375 291.59375 C212.99368896 292.03396484 213.80378418 292.47417969 214.63842773 292.92773438 C217.1454088 294.06602248 219.26205281 294.70671821 222 295 C224.4561999 293.85337105 226.59102573 292.67555808 228.875 291.25 C260.67700303 272.50481091 296.49835419 260.33373259 333 255 C333.7852002 254.88285645 334.57040039 254.76571289 335.37939453 254.64501953 C365.55172453 250.35653419 412.29268141 248.14634071 440 262 C440 175.54 440 89.08 440 0 C469 0 469 0 474 3 C475.67265101 4.67265101 475.12988724 6.70238026 475.13422108 9.00011158 C475.13867892 10.08993865 475.14313676 11.17976572 475.14772969 12.30261785 C475.14745315 14.12095609 475.14745315 14.12095609 475.14717102 15.97602844 C475.15084771 17.25221249 475.1545244 18.52839654 475.1583125 19.84325284 C475.16836158 23.40196519 475.17205395 26.96066068 475.17470181 30.51938522 C475.17859629 34.35111645 475.1881752 38.18283422 475.19691467 42.01455688 C475.21670356 51.27637901 475.22674843 60.53820228 475.23564246 69.80004027 C475.24002146 74.15739135 475.24538928 78.51474119 475.25063133 82.87209129 C475.26764616 97.34981821 475.28214141 111.82754435 475.28938007 126.30527973 C475.29129009 130.06476658 475.29321041 133.82425341 475.29516602 137.58374023 C475.29564976 138.51818791 475.2961335 139.4526356 475.2966319 140.41539987 C475.30493619 155.56051004 475.3302787 170.70554132 475.36274669 185.85061703 C475.39578111 201.38608009 475.41382556 216.92150301 475.41702431 232.45700139 C475.41919279 241.18515771 475.42799059 249.91319901 475.45348549 258.64132118 C475.47514319 266.07313656 475.48326735 273.50480899 475.47351871 280.93665234 C475.46895957 284.73059079 475.47095306 288.52423403 475.49028015 292.3181324 C475.51102974 296.4266385 475.5009731 300.53448373 475.48774719 304.64302063 C475.50420106 306.45132063 475.50420106 306.45132063 475.52098733 308.29615194 C475.51240644 309.39380225 475.50382555 310.49145256 475.49498463 311.622365 C475.49596144 312.57112375 475.49693824 313.5198825 475.49794465 314.49739152 C474.84718306 317.76803911 473.57168028 318.94128794 471 321 C467.3292053 322.22359823 463.94938714 322.14479234 460.12721252 322.14044189 C459.31640557 322.14341302 458.50559861 322.14638414 457.67022175 322.1494453 C454.94363031 322.15814132 452.21708273 322.15964134 449.49047852 322.16113281 C447.53908697 322.16576055 445.58769634 322.17078515 443.63630676 322.17617798 C438.32593103 322.18931309 433.01556795 322.19574976 427.7051785 322.20018864 C424.38552699 322.20311916 421.06587894 322.20722405 417.74622917 322.21169281 C407.35475288 322.22537415 396.96328449 322.23503621 386.57179981 322.2388947 C374.58714271 322.24336929 362.60260001 322.26088669 350.61797768 322.2898953 C341.34986341 322.31154715 332.08178124 322.32160095 322.81364197 322.32293582 C317.28113309 322.32398185 311.74873165 322.3298461 306.21624947 322.34775543 C301.00500972 322.36429541 295.79395746 322.3663629 290.58270073 322.35761642 C288.67685314 322.35684907 286.77099523 322.36114874 284.86517334 322.37107468 C271.90757552 322.43456481 260.46052971 321.5933901 248.66015625 315.71484375 C248.04530869 315.41308731 247.43046112 315.11133087 246.79698181 314.8004303 C244.8798914 313.85694549 242.97111012 312.89800421 241.0625 311.9375 C239.12728385 310.97702358 237.19046975 310.01985335 235.2530365 309.06385803 C233.51240571 308.20291776 231.77572541 307.33400375 230.03930664 306.46459961 C229.03633545 305.98128174 228.03336426 305.49796387 227 305 C226.16654053 304.58435791 225.33308105 304.16871582 224.47436523 303.74047852 C218.58845584 301.97906133 213.53269563 304.94140493 208.328125 307.52734375 C206.84383587 308.24431842 205.35945803 308.96110947 203.875 309.67773438 C201.56515085 310.80403052 199.25717737 311.93397001 196.95117188 313.06811523 C194.70648317 314.16858013 192.45526573 315.25472963 190.203125 316.33984375 C189.19321503 316.84462502 189.19321503 316.84462502 188.16290283 317.35960388 C176.75353667 322.83390453 164.87460946 322.29803494 152.50878906 322.29052734 C150.5367762 322.29651853 148.56476567 322.30332543 146.59275818 322.31088257 C141.26046026 322.32848032 135.9282266 322.33323505 130.59590244 322.33451414 C127.26268666 322.33593876 123.92948708 322.34021402 120.59627533 322.34550858 C108.96374986 322.36398158 97.33127012 322.37218178 85.69873047 322.37060547 C74.85927187 322.36940177 64.02001163 322.39055589 53.18060327 322.4220928 C43.86487652 322.44823009 34.54921474 322.45897398 25.2334516 322.45769465 C19.67326601 322.45718468 14.11325723 322.46288887 8.55310822 322.48405075 C3.32942818 322.50339249 -1.89390544 322.50358544 -7.11759758 322.48901749 C-9.03403415 322.4869239 -10.9504922 322.49166289 -12.86689186 322.5037384 C-15.4833455 322.51915788 -18.09859936 322.50990534 -20.71502686 322.49447632 C-21.47280922 322.50476344 -22.23059158 322.51505057 -23.01133704 322.52564943 C-26.46574689 322.48064253 -29.22256415 321.91940641 -32.47145367 320.74293804 C-36.59102059 316.27407913 -35.81660811 311.48189555 -35.74171448 305.61851501 C-35.74895772 304.33497857 -35.75620097 303.05144213 -35.76366371 301.72901064 C-35.78292831 298.16338347 -35.76468438 294.59877612 -35.74037087 291.03321588 C-35.72065622 287.18926025 -35.73548155 283.34541967 -35.74601746 279.50144958 C-35.76115276 271.9703146 -35.74420782 264.43957439 -35.71646655 256.90848844 C-35.6853386 248.14349909 -35.68552446 239.37859546 -35.68698429 230.61356122 C-35.68848669 214.97821191 -35.66098668 199.34304659 -35.61743164 183.70776367 C-35.57516102 168.52576343 -35.55391958 153.34392513 -35.5559082 138.16186523 C-35.55602807 137.22669573 -35.55614794 136.29152622 -35.55627144 135.32801824 C-35.5563925 134.39448707 -35.55651357 133.4609559 -35.5566383 132.49913591 C-35.55870643 115.22899009 -35.54104663 97.95891327 -35.51417865 80.6887898 C-35.50511954 74.57467394 -35.50193879 68.46057073 -35.50058174 62.3464489 C-35.49853789 54.89928969 -35.48517966 47.45224675 -35.45758332 40.0051369 C-35.44370752 36.20327156 -35.43460078 32.40155517 -35.43836594 28.59966278 C-35.44224387 24.4844424 -35.42295572 20.36966559 -35.40113831 16.25450134 C-35.40578411 15.04421058 -35.41042992 13.83391982 -35.41521651 12.58695358 C-35.40554317 11.48966102 -35.39586983 10.39236846 -35.38590336 9.26182461 C-35.38379008 8.31127459 -35.38167681 7.36072457 -35.3794995 6.38137001 C-34.92783197 3.54714359 -34.28069173 2.6914605 -32 1 C-21.87577163 -2.37474279 -10.67187373 0 0 0 Z " fill="#2A428C" transform="translate(36,171)"/>
<path d="M0 0 C1 1 1 1 1.12025452 2.94252014 C1.11803391 3.79301437 1.11581329 4.64350861 1.11352539 5.51977539 C1.11344986 6.48069595 1.11337433 7.44161652 1.11329651 8.43165588 C1.10813522 9.476436 1.10297394 10.52121613 1.09765625 11.59765625 C1.09553383 13.19364906 1.09553383 13.19364906 1.09336853 14.82188416 C1.08775064 18.23545083 1.07519511 21.648953 1.0625 25.0625 C1.05748731 27.37044176 1.052924 29.67838455 1.04882812 31.98632812 C1.0377754 37.65757426 1.02101987 43.32878253 1 49 C2.32837891 49.14695312 2.32837891 49.14695312 3.68359375 49.296875 C10.93662352 50.17237079 17.94279264 51.34784651 25.03515625 53.078125 C25.80734497 53.2632666 26.57953369 53.4484082 27.37512207 53.63916016 C29.2508935 54.08940339 31.12556799 54.54421269 33 55 C33.04156004 86.24914247 32.93057949 117.49748374 32.80645666 148.74632942 C32.77786816 155.95147629 32.75016583 163.1566265 32.72249681 170.36177696 C32.67316825 183.20139202 32.62318091 196.04100444 32.57275391 208.88061523 C32.52389358 221.32169459 32.47535932 233.76277515 32.42724609 246.20385742 C32.4242591 246.97620405 32.4212721 247.74855067 32.41819459 248.54430174 C32.40320534 252.42057365 32.38822231 256.29684558 32.37324238 260.17311752 C32.24979269 292.11541547 32.12525186 324.05770907 32 356 C30.92590425 355.78179328 30.92590425 355.78179328 29.8301096 355.55917835 C26.55133162 354.89439805 23.27189154 354.2329409 19.99243164 353.5715332 C18.86606544 353.34264656 17.73969925 353.11375992 16.57920074 352.87793732 C8.54591682 351.26115443 0.60286821 349.93689136 -7.5625 349.1875 C-8.79516602 349.07132324 -10.02783203 348.95514648 -11.29785156 348.83544922 C-69.3063785 343.87601963 -124.39644106 357.12216292 -175.84521484 383.88232422 C-178.54908514 385.28480759 -181.27120959 386.64677006 -184 388 C-183.36382133 384.87789835 -182.29568774 382.52629559 -180.6640625 379.796875 C-180.18251709 378.98951904 -179.70097168 378.18216309 -179.20483398 377.3503418 C-178.68348877 376.492229 -178.16214355 375.63411621 -177.625 374.75 C-176.81687866 373.41352417 -176.81687866 373.41352417 -175.99243164 372.05004883 C-170.96570077 363.81291938 -165.61833902 355.84306399 -160 348 C-159.5477002 347.36755371 -159.09540039 346.73510742 -158.62939453 346.08349609 C-150.04863809 334.13379517 -141.256513 322.2934688 -131.265625 311.4765625 C-129.41767481 309.45656178 -127.62825533 307.40728519 -125.84375 305.33203125 C-115.37103948 293.33683154 -103.84073772 281.46764841 -91 272 C-90.4834082 271.61231445 -89.96681641 271.22462891 -89.43457031 270.82519531 C-75.6365054 260.49874603 -61.95074603 252.97845139 -46 246 C-45.505 126.21 -45.505 126.21 -45 4 C-29.80282774 1.31814607 -15.35345422 -0.69788428 0 0 Z " fill="#D2DBFA" transform="translate(444,77)"/>
<path d="M0 0 C0 84.15 0 168.3 0 255 C6.27 255 12.54 255 19 255 C24.71668204 255.53465372 30.33668475 256.13050013 36 257 C37.93746094 257.29197266 37.93746094 257.29197266 39.9140625 257.58984375 C50.89159875 259.44876522 61.43023773 262.53231082 72 266 C72.67466309 266.21994629 73.34932617 266.43989258 74.04443359 266.66650391 C102.31464846 276.08024631 128.7320228 291.54633011 152 310 C152.89332031 310.69351562 153.78664062 311.38703125 154.70703125 312.1015625 C164.56793828 319.8437286 174.33669325 327.92415483 183 337 C182.34 337.33 181.68 337.66 181 338 C178.96313477 337.13891602 178.96313477 337.13891602 176.44140625 335.75390625 C175.50844727 335.25028564 174.57548828 334.74666504 173.61425781 334.2277832 C172.60717773 333.67823975 171.60009766 333.12869629 170.5625 332.5625 C136.67122295 314.53974155 100.18411357 303.78269935 62 300 C61.11465576 299.90501221 60.22931152 299.81002441 59.31713867 299.7121582 C31.82486504 296.92351806 4.8606515 300.05463251 -22.07592773 305.45922852 C-25.36776304 306.06801329 -28.68598995 306.52656999 -32 307 C-32 207.67 -32 108.34 -32 6 C-5.6 0 -5.6 0 0 0 Z " fill="#BDC7F6" transform="translate(68,126)"/>
<path d="M0 0 C17.25506757 2.30067568 17.25506757 2.30067568 24.4375 4.125 C25.18064453 4.30675781 25.92378906 4.48851562 26.68945312 4.67578125 C28.46136663 5.11018585 30.23098063 5.55395595 32 6 C32.04156004 37.24914247 31.93057949 68.49748374 31.80645666 99.74632942 C31.77786816 106.95147629 31.75016583 114.1566265 31.72249681 121.36177696 C31.67316825 134.20139202 31.62318091 147.04100444 31.57275391 159.88061523 C31.52389358 172.32169459 31.47535932 184.76277515 31.42724609 197.20385742 C31.4242591 197.97620405 31.4212721 198.74855067 31.41819459 199.54430174 C31.40320534 203.42057365 31.38822231 207.29684558 31.37324238 211.17311752 C31.24979269 243.11541547 31.12525186 275.05770907 31 307 C29.92590425 306.78179328 29.92590425 306.78179328 28.8301096 306.55917835 C25.55133162 305.89439805 22.27189154 305.2329409 18.99243164 304.5715332 C17.86606544 304.34264656 16.73969925 304.11375992 15.57920074 303.87793732 C7.54591682 302.26115443 -0.39713179 300.93689136 -8.5625 300.1875 C-9.79516602 300.07132324 -11.02783203 299.95514648 -12.29785156 299.83544922 C-70.30742478 294.87593018 -125.49138912 308.10251687 -176.9230957 334.921875 C-178.93899198 335.96833062 -180.9659208 336.98942008 -183 338 C-179.2750141 328.80328341 -166.54972728 320.97372171 -159 315 C-158.38382812 314.51128418 -157.76765625 314.02256836 -157.1328125 313.51904297 C-146.80717378 305.36550481 -136.21706682 297.87578035 -125 291 C-123.89084229 290.31574951 -123.89084229 290.31574951 -122.75927734 289.61767578 C-96.05607324 273.27076039 -65.84826303 260.66217173 -34.6875 256.3125 C-33.88505859 256.18294922 -33.08261719 256.05339844 -32.25585938 255.91992188 C-21.41911985 254.39259617 -11.17581891 255 0 255 C0 170.85 0 86.7 0 0 Z " fill="#BDC7F6" transform="translate(445,126)"/>
<path d="M0 0 C0 9.57 0 19.14 0 29 C-21.75838492 29.18568121 -43.51657711 29.32820562 -65.27559662 29.41449738 C-75.38013283 29.45564028 -85.48416583 29.51167071 -95.58837891 29.60351562 C-104.40159448 29.68358707 -113.2144454 29.73494431 -122.02801466 29.75270796 C-126.68920545 29.76308188 -131.34935361 29.78722943 -136.01020813 29.84584045 C-140.40999918 29.90071294 -144.80833239 29.91677998 -149.20843315 29.90486145 C-150.81112571 29.90703724 -152.41387421 29.92261093 -154.01626778 29.9536438 C-162.89162147 30.11689326 -169.96656779 29.19205952 -178.02062988 25.2557373 C-178.70877635 24.92023629 -179.39692283 24.58473527 -180.10592222 24.23906755 C-183.19165318 22.56686753 -184.78881155 21.62394484 -185.93621063 18.23401642 C-185.95726112 17.496791 -185.97831161 16.75956558 -186 16 C-135.17193679 -4.92146781 -53.31374399 -26.656872 0 0 Z " fill="#3C58A0" transform="translate(476,433)"/>
<path d="M0 0 C22.92974513 -0.57297505 45.7817688 1.25104718 68.23193359 6.078125 C69.32803955 6.31305664 69.32803955 6.31305664 70.44628906 6.55273438 C81.24403197 8.93247759 91.73989818 12.09996705 102.23193359 15.578125 C103.34101074 15.94566895 104.45008789 16.31321289 105.59277344 16.69189453 C112.94490602 19.18073163 120.10582485 22.00298438 127.23193359 25.078125 C126.37557329 29.08080125 125.7231829 30.72067545 122.36064053 33.16737461 C121.15018088 33.77768833 119.9226206 34.35486202 118.68296814 34.90345764 C117.68317646 35.35284544 117.68317646 35.35284544 116.66318697 35.81131178 C108.86099323 39.026595 101.33284095 39.01340795 93.01538086 38.87280273 C91.34816573 38.87082261 89.68094453 38.87194746 88.01373291 38.87590027 C83.53694054 38.87788894 79.06149118 38.83706123 74.58500791 38.78788257 C69.8886067 38.74378841 65.19216649 38.73998529 60.49559021 38.73170471 C51.6240966 38.71004538 42.75321493 38.65273589 33.88198942 38.58225828 C23.77309366 38.50371064 13.66416694 38.46545222 3.55504143 38.43039024 C-17.21967721 38.35744337 -37.99381144 38.23308221 -58.76806641 38.078125 C-58.76806641 28.508125 -58.76806641 18.938125 -58.76806641 9.078125 C-39.49730891 4.21703302 -19.89928927 0.56163103 0 0 Z " fill="#3C58A0" transform="translate(94.76806640625,423.921875)"/>
<path d="M0 0 C4.6752772 1.18343286 9.26822955 2.59672576 13.85546875 4.08203125 C15.11641357 4.49001953 15.11641357 4.49001953 16.40283203 4.90625 C48.19103089 15.40924674 77.5542692 31.6679508 103.91796875 52.20703125 C104.49562988 52.6561084 105.07329102 53.10518555 105.66845703 53.56787109 C108.23855441 55.61467748 110.01445569 57.32051166 111.85546875 60.08203125 C112.07558842 62.88150192 111.71265231 65.41029028 110.85546875 68.08203125 C108.30176631 70.41684491 106.55610259 70.97102967 103.16796875 71.5078125 C98.33654058 70.88679166 95.71742224 68.32227215 92.04296875 65.26953125 C62.60498096 41.82181302 26.07549644 22.47094709 -11.15405273 15.84057617 C-16.57194041 14.80087318 -19.66025337 13.6807138 -23.14453125 9.08203125 C-23.95401456 5.19651134 -23.43568858 3.60835411 -21.51953125 0.14453125 C-14.95331024 -3.86815936 -7.16662083 -1.66825145 0 0 Z " fill="#FC9A5D" transform="translate(122.14453125,147.91796875)"/>
<path d="M0 0 C20.75355879 3.74979074 41.14057906 11.74261318 60 21 C60.72735352 21.35674805 61.45470703 21.71349609 62.20410156 22.08105469 C77.77957745 29.82275325 92.35641504 39.1641626 106.375 49.4375 C107.16567871 50.01653076 107.95635742 50.59556152 108.77099609 51.19213867 C119.68660546 59.32856243 119.68660546 59.32856243 120.5625 64 C119.8491179 67.80470451 118.88381579 69.41196019 116 72 C112.90234375 73.02734375 112.90234375 73.02734375 109 73 C105.72183777 71.32370648 102.97829119 69.06096892 100.125 66.75 C98.42860273 65.44164602 96.7293313 64.13701099 95.02734375 62.8359375 C93.75673096 61.85705566 93.75673096 61.85705566 92.46044922 60.85839844 C66.38718659 41.16503913 30.79721965 22.01716443 -1.984375 17.59765625 C-10.23538858 16.45168214 -10.23538858 16.45168214 -13.25 13.3125 C-15.40349364 9.23624417 -15.32040651 7.37384656 -14 3 C-10.43789647 -1.71293698 -5.36857952 -0.55078587 0 0 Z " fill="#FC9A5D" transform="translate(114,216)"/>
<path d="M0 0 C42.44289113 7.68806805 87.94462905 30.41845861 119.80639648 59.68408203 C121.25070503 62.57269913 121.18328154 64.48055904 120.80639648 67.68408203 C118.74389648 70.55908203 118.74389648 70.55908203 115.80639648 72.68408203 C111.40163271 73.32633191 108.72396296 72.94942126 105.15014648 70.41064453 C103.85707867 69.39160988 102.57633817 68.35679579 101.30639648 67.30908203 C99.88556301 66.19410987 98.4623348 65.08218339 97.03686523 63.97314453 C96.32578613 63.41530273 95.61470703 62.85746094 94.88208008 62.28271484 C76.64602814 48.23782328 55.88603401 37.696806 34.80639648 28.68408203 C33.66299805 28.18263672 32.51959961 27.68119141 31.34155273 27.16455078 C18.75847204 21.95604826 4.989972 18.78786573 -8.37011719 16.24243164 C-10.19360352 15.68408203 -10.19360352 15.68408203 -12.75610352 13.43408203 C-14.50185816 10.0943775 -14.88989731 8.39764896 -14.19360352 4.68408203 C-10.12490017 -0.98744384 -6.61061833 -0.95204676 0 0 Z " fill="#FC9A5D" transform="translate(113.193603515625,293.31591796875)"/>
</svg>
